<svg xmlns="http://www.w3.org/2000/svg" width="512" height="512" viewBox="0 0 512 512" version="1.1"><path d="" stroke="none" fill="#000000" fill-rule="evenodd"/><path d="M 435 136.500 L 435 145 441.577 145 C 447.513 145, 448.439 145.285, 451.077 147.923 C 456.573 153.419, 455.126 156.431, 439.823 171.363 C 415.158 195.429, 412.228 198, 409.463 198 C 407.367 198, 403.758 195.047, 392.964 184.500 C 380.162 171.991, 378.871 171, 375.373 171 C 371.733 171, 370.052 172.542, 328.549 213.922 C 303.791 238.607, 284.650 256.926, 283.500 257.037 C 278.744 257.497, 277.062 256.343, 264.500 244 C 252.175 231.890, 251.006 231, 247.431 231 C 243.723 231, 242.421 232.169, 209 265.500 C 175.357 299.052, 174.299 300, 170.497 300 C 166.719 300, 165.707 299.122, 140.519 274 C 116.401 249.945, 114.190 248, 110.961 248 C 107.691 248, 104.603 250.870, 62.094 293.417 C 17.184 338.367, 16.724 338.869, 17.383 342.164 C 18.314 346.820, 21.216 349.400, 25.523 349.400 C 28.883 349.400, 31.312 347.181, 67.295 311.246 C 88.308 290.262, 106.738 272.633, 108.250 272.071 C 110.134 271.371, 111.866 271.378, 113.750 272.092 C 115.263 272.665, 128.003 284.579, 142.062 298.567 C 165.439 321.826, 167.915 324, 171.029 324 C 174.169 324, 177.137 321.301, 209.186 289.300 C 241.730 256.805, 244.163 254.600, 247.471 254.600 C 250.664 254.600, 252.290 255.873, 264.335 267.800 C 276.832 280.174, 277.909 281, 281.545 281 C 285.323 281, 286.552 279.874, 328.500 238 C 370.448 196.126, 371.677 195, 375.455 195 C 379.091 195, 380.168 195.826, 392.665 208.200 C 404.702 220.119, 406.338 221.400, 409.523 221.400 C 412.801 221.400, 414.905 219.550, 439.318 195.200 C 462.994 171.586, 465.911 169, 468.870 169 C 471.166 169, 473.033 169.879, 475.077 171.923 C 477.715 174.561, 478 175.487, 478 181.423 L 478 188 486.500 188 L 495 188 495 158 L 495 128 465 128 L 435 128 435 136.500" stroke="none" fill="#3bcde5" fill-rule="evenodd"/><path d="M 227.500 44 C 229.648 46.200, 231.631 48, 231.906 48 C 232.181 48, 230.648 46.200, 228.500 44 C 226.352 41.800, 224.369 40, 224.094 40 C 223.819 40, 225.352 41.800, 227.500 44 M 170.310 46.500 C 170.315 49.800, 170.502 51.029, 170.725 49.232 C 170.947 47.435, 170.943 44.735, 170.715 43.232 C 170.486 41.729, 170.304 43.200, 170.310 46.500 M 444.966 165.750 L 439.500 171.500 445.250 166.034 C 450.592 160.956, 451.458 160, 450.716 160 C 450.560 160, 447.972 162.588, 444.966 165.750 M 170.310 175.500 C 170.315 178.800, 170.502 180.029, 170.725 178.232 C 170.947 176.435, 170.943 173.735, 170.715 172.232 C 170.486 170.729, 170.304 172.200, 170.310 175.500 M 438.993 195.750 L 413.500 221.500 439.250 196.007 C 453.413 181.986, 465 170.399, 465 170.257 C 465 169.549, 462.682 171.822, 438.993 195.750 M 328.995 237.750 L 287.500 279.500 329.250 238.005 C 368.055 199.436, 371.449 196, 370.745 196 C 370.605 196, 351.818 214.787, 328.995 237.750 M 391.500 208 C 398.083 214.600, 403.694 220, 403.969 220 C 404.244 220, 399.083 214.600, 392.500 208 C 385.917 201.400, 380.306 196, 380.031 196 C 379.756 196, 384.917 201.400, 391.500 208 M 464.287 247.740 C 467.469 247.939, 472.419 247.937, 475.287 247.736 C 478.154 247.535, 475.550 247.372, 469.500 247.374 C 463.450 247.376, 461.104 247.541, 464.287 247.740 M 61.996 292.750 L 17.500 337.500 62.250 293.004 C 103.844 251.646, 107.449 248, 106.746 248 C 106.606 248, 86.468 268.137, 61.996 292.750 M 140.500 274 C 154.242 287.750, 165.710 299, 165.985 299 C 166.260 299, 155.242 287.750, 141.500 274 C 127.758 260.250, 116.290 249, 116.015 249 C 115.740 249, 126.758 260.250, 140.500 274 M 486.482 357.500 C 486.482 414.700, 486.602 437.953, 486.750 409.174 C 486.897 380.394, 486.897 333.594, 486.750 305.174 C 486.602 276.753, 486.482 300.300, 486.482 357.500 M 378.750 264.737 C 381.637 264.939, 386.363 264.939, 389.250 264.737 C 392.137 264.535, 389.775 264.370, 384 264.370 C 378.225 264.370, 375.863 264.535, 378.750 264.737 M 67.495 311.250 L 29.500 349.500 67.750 311.505 C 103.300 276.191, 106.450 273, 105.745 273 C 105.605 273, 88.392 290.212, 67.495 311.250 M 141 298.500 C 154.467 311.975, 165.710 323, 165.985 323 C 166.260 323, 155.467 311.975, 142 298.500 C 128.533 285.025, 117.290 274, 117.015 274 C 116.740 274, 127.533 285.025, 141 298.500 M 281.470 400.500 C 281.470 434.050, 281.596 447.630, 281.750 430.678 C 281.903 413.726, 281.903 386.276, 281.749 369.678 C 281.595 353.080, 281.470 366.950, 281.470 400.500 M 230.459 417.500 C 230.460 441.700, 230.590 451.457, 230.749 439.182 C 230.908 426.907, 230.908 407.107, 230.749 395.182 C 230.589 383.257, 230.459 393.300, 230.459 417.500 M 17 486.500 L 17 495 256 495 L 495 495 495 486.500 L 495 478 256 478 L 17 478 17 486.500" stroke="none" fill="#44657a" fill-rule="evenodd"/><path d="M 139.195 2.039 C 121.629 5.835, 97.281 17.840, 94.227 24.212 C 92.426 27.970, 93.635 31.612, 97.472 33.983 C 102.004 36.784, 103.500 36.561, 110.430 32.048 C 118.262 26.949, 127.936 22.591, 137.711 19.758 C 144.489 17.793, 147.708 17.508, 162.500 17.559 C 178.027 17.614, 180.261 17.852, 188.282 20.314 C 223.587 31.150, 248.244 58.626, 255.076 94.742 C 257.044 105.146, 255.775 126.685, 252.557 137.500 C 243.125 169.199, 218.354 193.381, 186.470 202.016 C 176.298 204.770, 157.826 205.730, 147.390 204.047 C 111.014 198.179, 82.347 172.711, 71.359 136.500 C 68.891 128.368, 68.622 125.957, 68.564 111.500 C 68.509 97.821, 68.831 94.291, 70.779 87.163 C 73.533 77.091, 77.738 67.587, 83.048 59.430 C 87.580 52.470, 87.788 51.012, 84.917 46.366 C 80.354 38.983, 74.672 41.081, 67.288 52.874 C 57.070 69.195, 52.062 85.990, 51.296 106.500 C 50.673 123.213, 52.252 134.027, 57.434 148.527 C 68.017 178.137, 92.071 203.169, 120.460 214.117 C 137.138 220.549, 141.800 221.362, 162 221.362 C 177.884 221.362, 181.609 221.056, 188.344 219.198 C 209.159 213.455, 225.260 204.417, 239.470 190.500 C 256.905 173.424, 267.042 154.395, 271.587 130.210 C 274.008 117.330, 273.122 95.855, 269.621 82.523 C 259.564 44.234, 228.723 13.468, 190.206 3.300 C 176.505 -0.317, 152.809 -0.903, 139.195 2.039 M 156.455 37.455 C 154.359 39.550, 154 40.847, 154 46.319 L 154 52.728 149.483 54.453 C 142.679 57.052, 134.823 64.774, 131.539 72.092 C 129.035 77.672, 128.810 79.096, 129.205 86.883 C 129.705 96.750, 131.682 101.530, 138.178 108.577 C 143.420 114.264, 151.203 117.896, 160.344 118.921 C 171.647 120.188, 176.806 123.854, 179.058 132.214 C 182.773 146.013, 169.141 157.763, 155.471 152.542 C 149.822 150.385, 146.302 145.867, 145.026 139.135 C 143.412 130.624, 141.952 129, 135.918 129 C 132.716 129, 129.055 132, 128.903 134.750 C 128.145 148.435, 137.165 162.842, 149.421 167.523 L 153.785 169.190 154.182 176.215 C 154.514 182.084, 154.961 183.550, 156.900 185.120 C 160.150 187.752, 164.578 187.513, 167.545 184.545 C 169.637 182.454, 170 181.150, 170 175.729 L 170 169.368 175.383 167.137 C 181.754 164.496, 189.002 157.694, 191.964 151.575 C 193.131 149.164, 194.594 144.460, 195.214 141.123 C 196.163 136.021, 196.069 134.054, 194.626 128.777 C 190.467 113.566, 179.808 104.798, 163.185 102.912 C 154.425 101.919, 150.272 99.608, 147.098 93.961 C 145.212 90.605, 144.851 88.741, 145.187 84.096 C 145.941 73.674, 153.309 67.363, 163.716 68.226 C 172.267 68.935, 178.285 74.857, 179.569 83.823 C 179.937 86.395, 181.163 89.513, 182.293 90.750 C 184.863 93.563, 189.893 93.718, 193.139 91.085 C 195.176 89.432, 195.485 88.341, 195.391 83.133 C 195.185 71.730, 186.786 59.754, 175.597 54.909 L 170.034 52.500 170.017 46.385 C 170.004 41.730, 169.505 39.640, 167.927 37.635 C 165.144 34.096, 159.896 34.014, 156.455 37.455 M 427.379 112.437 C 425.663 113.184, 422.963 115.492, 421.379 117.566 C 418.618 121.182, 418.486 121.848, 418.165 133.811 C 417.749 149.342, 418.190 151.693, 422.452 156.673 L 425.875 160.672 418.004 168.496 L 410.133 176.321 400.316 167.008 C 394.869 161.840, 388.530 156.817, 386.073 155.723 C 380.118 153.069, 370.807 153.088, 364.927 155.766 C 361.718 157.227, 349.629 168.517, 321 196.792 L 281.500 235.802 272.500 227.035 C 261.080 215.911, 256.812 213.621, 247.500 213.621 C 242.175 213.621, 239.423 214.170, 236 215.916 C 233.043 217.423, 221.035 228.631, 200.985 248.599 L 170.470 278.987 148.485 256.971 C 135.038 243.505, 124.947 234.213, 122.500 233.045 C 116.240 230.059, 110.056 229.554, 103.347 231.482 C 97.577 233.140, 96.884 233.777, 50.763 279.794 C 24.444 306.054, 3.277 327.970, 2.311 329.963 C -0.342 335.436, -0.624 345.805, 1.736 351.118 C 6.235 361.241, 14.868 367.016, 25.446 366.978 C 36.267 366.939, 37.211 366.202, 75.739 327.725 L 110.977 292.534 134.239 315.684 C 156.600 337.940, 157.727 338.901, 163.376 340.525 C 167.198 341.624, 170.679 341.987, 173.334 341.563 C 182.880 340.036, 185.352 338.050, 217.022 306.452 L 247.543 275.999 255.924 284.423 C 266.983 295.540, 272.251 298.424, 281.500 298.424 C 287.262 298.424, 289.395 297.934, 293.561 295.656 C 297.067 293.738, 310.414 281.093, 337.014 254.486 L 375.405 216.085 385.458 225.865 C 396.221 236.337, 401.096 239, 409.500 239 C 419.271 239, 422.075 237.107, 443.065 216.337 L 462.629 196.977 464.936 199.432 C 469.313 204.091, 472.822 205, 486.441 205 C 500.766 205, 504.963 203.665, 509.166 197.773 L 511.500 194.500 511.500 157.823 C 511.500 122.176, 511.441 121.067, 509.408 118.323 C 508.257 116.770, 505.828 114.487, 504.010 113.250 C 500.734 111.020, 500.389 111, 465.602 111.039 C 438.295 111.070, 429.807 111.380, 427.379 112.437 M 435 137 L 435 146 441.826 146 C 447.668 146, 448.965 146.334, 450.826 148.314 C 452.185 149.762, 453 151.914, 453 154.057 C 453 157.182, 451.245 159.235, 433.177 177.243 C 415.312 195.048, 413.022 197, 410.001 197 C 407.048 197, 405.078 195.456, 393.486 184.060 C 380.424 171.218, 377.292 169.167, 372.822 170.526 C 371.545 170.914, 351.128 190.530, 327.452 214.116 C 290.770 250.657, 283.979 257, 281.534 257 C 279.196 257, 276.226 254.584, 265.458 243.922 C 253.605 232.184, 251.820 230.785, 248.050 230.280 L 243.850 229.717 209.175 264.257 C 190.104 283.254, 173.504 299.093, 172.288 299.454 C 171.071 299.815, 169.046 299.585, 167.788 298.943 C 166.529 298.301, 154.005 286.351, 139.956 272.388 C 116.528 249.103, 114.127 247, 110.981 247 C 107.792 247, 104.369 250.180, 62.276 292.235 C 18.411 336.061, 17 337.589, 17 341.281 C 17 346.463, 20.514 350, 25.663 350 C 29.269 350, 30.954 348.466, 68.500 311 C 96.841 282.719, 108.204 272, 109.841 272 C 111.083 272, 113.314 272.645, 114.800 273.434 C 116.285 274.222, 128.506 285.907, 141.959 299.400 C 167.060 324.577, 169.430 326.383, 174.191 323.956 C 175.461 323.309, 191.815 307.529, 210.534 288.890 C 239.455 260.090, 245 255, 247.448 255 C 249.789 255, 252.685 257.318, 262.914 267.379 C 269.836 274.188, 276.483 280.263, 277.684 280.879 C 283.642 283.936, 282.874 284.570, 328.689 238.800 C 369.368 198.160, 372.141 195.600, 375.468 195.600 C 378.665 195.600, 380.285 196.867, 392.335 208.800 C 411.095 227.376, 406.808 228.539, 439.500 196 C 463.727 171.887, 465.877 170, 469.137 170 C 474.799 170, 477 173.167, 477 181.314 L 477 188 486 188 L 495 188 495 158 L 495 128 465 128 L 435 128 435 137 M 453.994 230.934 C 446.565 233.194, 440.376 238.706, 437.079 246 C 435.074 250.433, 435.044 252.071, 435.022 355.250 L 435 460 427.029 460 L 419.057 460 418.779 363.678 L 418.500 267.357 415.478 261.428 C 412.198 254.997, 406.046 249.940, 399.177 248.033 C 394.418 246.711, 373.582 246.711, 368.823 248.033 C 361.954 249.940, 355.802 254.997, 352.522 261.428 L 349.500 267.357 349.221 363.678 L 348.943 460 340.971 460 L 333 460 332.990 397.750 L 332.980 335.500 330.649 330.493 C 329.366 327.739, 326.591 323.970, 324.481 322.118 C 317.695 316.159, 315.149 315.511, 298.500 315.505 C 283.594 315.500, 283.466 315.519, 278 318.584 C 272.023 321.936, 266.793 328.485, 265.033 334.823 C 264.389 337.139, 264.009 360.988, 264.006 399.250 L 264 460 256 460 L 248 460 247.994 416.250 C 247.991 389.559, 247.591 371.066, 246.967 368.823 C 245.060 361.954, 240.004 355.802, 233.571 352.522 C 227.805 349.583, 227.254 349.500, 213.571 349.500 C 199.937 349.500, 199.314 349.593, 193.500 352.500 C 186.863 355.819, 181.756 361.617, 180.046 367.775 C 179.405 370.081, 179.009 388.353, 179.006 415.750 L 179 460 171.064 460 L 163.128 460 162.814 414.750 C 162.502 369.813, 162.484 369.468, 160.192 364.814 C 157.552 359.455, 151.460 353.550, 146.140 351.193 C 140.922 348.882, 115.078 348.882, 109.860 351.193 C 104.540 353.550, 98.448 359.455, 95.808 364.814 C 93.516 369.468, 93.498 369.813, 93.186 414.750 L 92.872 460 84.936 460 L 77 460 76.994 432.750 C 76.991 417.064, 76.550 403.919, 75.954 401.775 C 74.371 396.075, 69.093 389.914, 63.118 386.793 C 57.945 384.090, 57.282 384.001, 42.636 384.022 C 30.026 384.040, 26.832 384.354, 23.500 385.900 C 18.552 388.196, 13.527 393.110, 10.670 398.447 C 8.605 402.305, 8.485 403.943, 8.194 432.441 L 7.888 462.381 4.501 466.131 C 0.272 470.812, -0.252 473.609, 0.165 489.288 C 0.528 502.917, 1.214 504.831, 7.385 509.438 L 10.147 511.500 253.323 511.785 C 387.070 511.941, 497.949 511.811, 499.721 511.495 C 503.975 510.736, 508.602 506.728, 511.033 501.695 C 512.676 498.294, 513 495.506, 513 484.753 C 513 476.427, 512.647 472.100, 512 472.500 C 511.450 472.840, 511 472.418, 511 471.562 C 511 470.706, 509.425 468.262, 507.500 466.132 L 504 462.258 504 357.810 C 504 239.237, 504.468 246.373, 496.140 238.044 C 489.474 231.379, 484.713 229.979, 469.072 230.086 C 462.157 230.133, 455.372 230.515, 453.994 230.934 M 456.500 248.208 C 451.906 250.842, 452.065 246.976, 452.032 356.750 L 452 461 469.514 461 L 487.027 461 486.764 356.413 L 486.500 251.827 483.694 249.413 C 481.084 247.168, 480.108 247.002, 469.694 247.030 C 463.162 247.048, 457.667 247.538, 456.500 248.208 M 371 265.291 C 369.623 265.985, 367.964 268.113, 367.306 270.026 C 366.417 272.616, 366.099 297.350, 366.056 367.250 L 366 461 384 461 L 402 461 401.994 367.750 C 401.991 306.220, 401.635 273.225, 400.948 270.752 C 399.416 265.234, 396.266 263.997, 383.800 264.015 C 377.528 264.024, 372.522 264.523, 371 265.291 M 286.476 333.352 C 284.812 334.101, 282.900 335.924, 282.226 337.404 C 281.301 339.433, 281 354.952, 281 400.547 L 281 461 298.500 461 L 316 461 316 399.556 L 316 338.112 313.589 335.306 C 311.253 332.589, 310.835 332.492, 300.339 332.245 C 292.851 332.069, 288.565 332.411, 286.476 333.352 M 117.374 366.637 C 116.205 366.895, 114.180 368.243, 112.874 369.633 L 110.500 372.159 110.211 416.580 L 109.921 461 128 461 L 146.079 461 145.789 416.522 L 145.500 372.044 142.753 369.297 C 140.146 366.691, 139.480 366.541, 129.753 366.359 C 124.114 366.254, 118.543 366.379, 117.374 366.637 M 202.295 367.107 C 195.857 368.969, 196 367.844, 196 416.723 L 196 461 213.500 461 L 231 461 231 417.450 C 231 368.514, 231.058 368.943, 224.248 367.052 C 219.716 365.794, 206.725 365.826, 202.295 367.107 M 28.913 402.282 C 25.290 405.064, 25 407.447, 25 434.434 L 25 461 42.500 461 L 60 461 60 433.455 L 60 405.909 57.545 403.455 C 55.201 401.111, 54.537 401.001, 42.795 401.032 C 34.711 401.053, 29.957 401.481, 28.913 402.282 M 0.395 486.500 C 0.396 494.200, 0.553 497.218, 0.743 493.206 C 0.934 489.195, 0.932 482.895, 0.741 479.206 C 0.549 475.518, 0.393 478.800, 0.395 486.500 M 17 486 L 17 495 256 495 L 495 495 495 486 L 495 477 256 477 L 17 477 17 486" stroke="none" fill="#373737" fill-rule="evenodd"/><path d="M 115.364 368.170 C 111.173 370.199, 111 372.161, 111 417.547 L 111 461 128 461 L 145 461 145 417.547 C 145 387.831, 144.649 373.324, 143.890 371.657 C 143.279 370.317, 141.683 368.721, 140.343 368.110 C 137.303 366.725, 118.254 366.770, 115.364 368.170 M 30.315 402.007 C 29.114 402.491, 27.651 403.783, 27.065 404.878 C 26.387 406.146, 26 416.696, 26 433.934 L 26 461 43.045 461 L 60.090 461 59.795 433.412 L 59.500 405.824 56.694 403.412 C 54.095 401.177, 53.103 401.005, 43.194 401.063 C 37.312 401.098, 31.517 401.523, 30.315 402.007" stroke="none" fill="#e24c66" fill-rule="evenodd"/><path d="M 123.250 366.735 C 125.862 366.941, 130.137 366.941, 132.750 366.735 C 135.363 366.529, 133.225 366.360, 128 366.360 C 122.775 366.360, 120.638 366.529, 123.250 366.735 M 110.459 418 C 110.459 441.925, 110.589 451.713, 110.749 439.750 C 110.908 427.788, 110.908 408.213, 110.749 396.250 C 110.589 384.288, 110.459 394.075, 110.459 418 M 145.459 418 C 145.459 441.925, 145.589 451.713, 145.749 439.750 C 145.908 427.788, 145.908 408.213, 145.749 396.250 C 145.589 384.288, 145.459 394.075, 145.459 418 M 25.439 434 C 25.439 449.125, 25.578 455.313, 25.748 447.750 C 25.917 440.188, 25.917 427.813, 25.748 420.250 C 25.578 412.688, 25.439 418.875, 25.439 434" stroke="none" fill="#42383a" fill-rule="evenodd"/><path d="M 284.455 335.455 L 282 337.909 282 399.479 L 282 461.048 298.750 460.774 L 315.500 460.500 315.500 399.163 L 315.500 337.826 312.694 335.413 C 310.080 333.165, 309.102 333, 298.399 333 C 287.533 333, 286.776 333.133, 284.455 335.455 M 199.399 369.332 L 196.500 371.826 196.500 416.163 L 196.500 460.500 213.250 460.774 L 230 461.048 230 416.635 C 230 374.414, 229.906 372.105, 228.091 369.861 C 226.309 367.658, 225.383 367.478, 214.240 367.170 C 202.723 366.851, 202.195 366.928, 199.399 369.332" stroke="none" fill="#54d174" fill-rule="evenodd"/><path d="M 284.455 335.455 L 282 337.909 282 399.479 L 282 461.048 298.750 460.774 L 315.500 460.500 315.500 399.163 L 315.500 337.826 312.694 335.413 C 310.080 333.165, 309.102 333, 298.399 333 C 287.533 333, 286.776 333.133, 284.455 335.455 M 199.399 369.332 L 196.500 371.826 196.500 416.163 L 196.500 460.500 213.250 460.774 L 230 461.048 230 416.635 C 230 374.414, 229.906 372.105, 228.091 369.861 C 226.309 367.658, 225.383 367.478, 214.240 367.170 C 202.723 366.851, 202.195 366.928, 199.399 369.332" stroke="none" fill="#54d174" fill-rule="evenodd"/><path d="M 148.500 18.013 C 138.104 19.582, 123.337 24.978, 113.946 30.640 C 104.466 36.354, 100.095 37.301, 96.830 34.346 C 95.105 32.785, 94.689 33.007, 89.348 38.348 C 84.007 43.689, 83.785 44.105, 85.346 45.830 C 88.193 48.975, 87.365 53.638, 82.588 61.364 C 72.885 77.056, 68.675 92.076, 68.675 111 C 68.675 126.384, 71.079 137.213, 77.502 150.773 C 87.045 170.917, 100.874 185.017, 120.879 195 C 133.945 201.519, 145.826 204.227, 161.500 204.256 C 182.078 204.295, 197.265 199.875, 213.593 189.095 C 246.948 167.074, 262.492 127.283, 253.014 88.182 C 248.915 71.273, 239.998 56.074, 226.666 43.275 C 214.290 31.393, 199.897 23.555, 183 19.495 C 175.030 17.579, 156.612 16.788, 148.500 18.013 M 158.315 35.007 C 155.121 36.294, 154 39.118, 154 45.878 L 154 51.888 148.016 54.573 C 140.986 57.728, 133.933 64.762, 130.801 71.741 C 129.192 75.325, 128.644 78.604, 128.582 85.018 C 128.508 92.714, 128.817 94.180, 131.787 100.215 C 137.528 111.883, 146.798 117.941, 161.215 119.449 C 168.455 120.207, 172.806 122.461, 176.408 127.323 C 179.357 131.304, 179.374 141.682, 176.438 145.615 C 170.345 153.776, 159.702 155.804, 152.077 150.258 C 148.787 147.864, 145 140.490, 145 136.477 C 145 130.606, 138.694 126.641, 133.066 128.973 C 129.273 130.544, 127.578 134.793, 128.303 140.914 C 129.579 151.684, 137.145 161.977, 147.553 167.101 L 154 170.275 154 176.637 C 154 181.639, 154.422 183.422, 155.975 184.975 C 158.720 187.720, 162.351 188.421, 165.647 186.840 C 169.407 185.037, 170.964 181.595, 171.002 175 L 171.034 169.500 176.538 167.117 C 183.596 164.062, 191.107 156.004, 193.929 148.459 C 198.368 136.595, 195.676 122.844, 187.123 113.701 C 181.010 107.165, 174.481 104.013, 163.727 102.407 C 153.495 100.879, 150.093 98.889, 147.086 92.677 C 144.529 87.396, 144.480 83.741, 146.896 78.421 C 149.111 73.545, 152.870 70.381, 158.131 68.965 C 168.071 66.288, 179 74.709, 179 85.045 C 179 88.724, 183.697 94, 186.973 94 C 189.871 94, 194.620 91.432, 195.379 89.455 C 196.625 86.209, 195.950 78.938, 193.878 73.288 C 191.201 65.986, 181.372 55.791, 175.238 53.953 L 171.211 52.747 170.816 45.753 C 170.469 39.603, 170.087 38.472, 167.655 36.379 C 164.780 33.907, 162.044 33.505, 158.315 35.007 M 456.229 248.669 C 455.530 248.951, 454.292 250.468, 453.479 252.041 C 452.202 254.511, 452 268.958, 452 357.950 L 452 461 469 461 L 486 461 486 356.674 L 486 252.349 483.686 250.174 C 481.565 248.182, 480.373 248.007, 469.436 248.079 C 462.871 248.122, 456.928 248.388, 456.229 248.669 M 369.455 267.455 L 367 269.909 367 365.455 L 367 461 384 461 L 401 461 401 365.455 L 401 269.909 398.545 267.455 C 396.210 265.119, 395.504 265, 384 265 C 372.496 265, 371.790 265.119, 369.455 267.455" stroke="none" fill="#f0bb4e" fill-rule="evenodd"/><path d="M 437.750 145.723 C 439.538 145.945, 442.462 145.945, 444.250 145.723 C 446.038 145.502, 444.575 145.320, 441 145.320 C 437.425 145.320, 435.962 145.502, 437.750 145.723 M 327.495 214.250 L 286.500 255.500 327.750 214.505 C 350.438 191.957, 369 173.395, 369 173.255 C 369 172.551, 365.599 175.910, 327.495 214.250 M 393 184.500 C 399.307 190.825, 404.692 196, 404.967 196 C 405.242 196, 400.307 190.825, 394 184.500 C 387.693 178.175, 382.308 173, 382.033 173 C 381.758 173, 386.693 178.175, 393 184.500 M 95 177.500 C 96.866 179.425, 98.617 181, 98.892 181 C 99.167 181, 97.866 179.425, 96 177.500 C 94.134 175.575, 92.383 174, 92.108 174 C 91.833 174, 93.134 175.575, 95 177.500 M 477.310 182.500 C 477.315 185.800, 477.502 187.029, 477.725 185.232 C 477.947 183.435, 477.943 180.735, 477.715 179.232 C 477.486 177.729, 477.304 179.200, 477.310 182.500 M 222.491 251.250 L 202.500 271.500 222.750 251.509 C 241.565 232.935, 243.451 231, 242.741 231 C 242.598 231, 233.485 240.113, 222.491 251.250 M 261 240.500 C 266.203 245.725, 270.685 250, 270.960 250 C 271.235 250, 267.203 245.725, 262 240.500 C 256.797 235.275, 252.315 231, 252.040 231 C 251.765 231, 255.797 235.275, 261 240.500 M 208.494 290.250 L 175.500 323.500 208.750 290.506 C 239.652 259.842, 242.450 257, 241.744 257 C 241.604 257, 226.641 271.962, 208.494 290.250 M 264 268.500 C 270.307 274.825, 275.692 280, 275.967 280 C 276.242 280, 271.307 274.825, 265 268.500 C 258.693 262.175, 253.308 257, 253.033 257 C 252.758 257, 257.693 262.175, 264 268.500 M 366.480 366.500 C 366.480 418.200, 366.601 439.203, 366.750 413.174 C 366.898 387.145, 366.898 344.845, 366.750 319.174 C 366.601 293.503, 366.480 314.800, 366.480 366.500 M 401.480 366.500 C 401.480 418.200, 401.601 439.203, 401.750 413.174 C 401.898 387.145, 401.898 344.845, 401.750 319.174 C 401.601 293.503, 401.480 314.800, 401.480 366.500 M 187 286.500 C 184.571 288.975, 182.809 291, 183.084 291 C 183.359 291, 185.571 288.975, 188 286.500 C 190.429 284.025, 192.191 282, 191.916 282 C 191.641 282, 189.429 284.025, 187 286.500 M 293.750 332.737 C 296.637 332.939, 301.363 332.939, 304.250 332.737 C 307.137 332.535, 304.775 332.370, 299 332.370 C 293.225 332.370, 290.863 332.535, 293.750 332.737 M 209.280 366.736 C 211.909 366.943, 215.959 366.940, 218.280 366.731 C 220.601 366.521, 218.450 366.352, 213.500 366.355 C 208.550 366.358, 206.651 366.530, 209.280 366.736 M 136.250 477.750 C 202.113 477.892, 309.888 477.892, 375.750 477.750 C 441.613 477.608, 387.725 477.492, 256 477.492 C 124.275 477.492, 70.388 477.608, 136.250 477.750" stroke="none" fill="#38433e" fill-rule="evenodd"/></svg>